<svg width="35" height="35" viewBox="0 0 34 34" fill="none" xmlns="http://www.w3.org/2000/svg"><g id="Huge-icon/user/bulk/user-circle"><g id="user circle"><path id="Vector" opacity="0.4" d="M31.1666 17C31.1666 21.2037 29.2784 24.9731 26.2916 27.5307C23.8043 29.6607 20.555 30.9502 16.9999 30.9502C13.4448 30.9502 10.1956 29.6607 7.70824 27.5307C4.72145 24.9731 2.83325 21.2037 2.83325 17C2.83325 9.29552 9.17588 3.0498 16.9999 3.0498C24.824 3.0498 31.1666 9.29552 31.1666 17Z" fill="url(#paint0_linear_1587_48173)"></path><g id="Vector_2"><path d="M26.2915 27.5307C24.8841 23.8241 21.2549 21.1851 16.9998 21.1851C12.7447 21.1851 9.11549 23.8241 7.70813 27.5307C10.1955 29.6607 13.4447 30.9502 16.9998 30.9502C20.5549 30.9502 23.8041 29.6607 26.2915 27.5307Z" fill="url(#paint1_linear_1587_48173)"></path></g><ellipse id="Ellipse 321" cx="4.25" cy="4.18506" rx="4.25" ry="4.18506" transform="matrix(1 0 0 -1 12.7499 18.3945)" fill="white"></ellipse></g></g><defs><linearGradient id="paint0_linear_1587_48173" x1="12.6712" y1="25.0911" x2="37.7233" y2="22.2511" gradientUnits="userSpaceOnUse"><stop stop-color="#00B5F1"></stop><stop offset="1" stop-color="#00E0FF"></stop></linearGradient><linearGradient id="paint1_linear_1587_48173" x1="14.1607" y1="28.8995" x2="30.0845" y2="25.5167" gradientUnits="userSpaceOnUse"><stop stop-color="#00B5F1"></stop><stop offset="1" stop-color="#00E0FF"></stop></linearGradient></defs></svg>