<svg width="41" height="44" viewBox="0 0 41 44" fill="none" xmlns="http://www.w3.org/2000/svg">
<path d="M40.9641 33.2594L40.824 39.7214C40.8134 40.3214 40.6814 40.9126 40.4364 41.4572C40.1915 42.0018 39.839 42.4878 39.4015 42.8841C38.9641 43.2803 38.4514 43.5781 37.8962 43.7583C37.341 43.9386 36.7555 43.9973 36.1773 43.9307C29.7658 43.0712 23.6412 40.6724 18.2956 36.9271C13.3207 33.5106 9.13774 29.0054 6.04378 23.7314C2.63572 18.0355 0.577715 11.59 0.0364781 4.91708C-0.00280214 4.32029 0.0788565 3.72145 0.276254 3.15866C0.473652 2.59588 0.782463 2.08149 1.18303 1.64825C1.58359 1.21501 2.06713 0.872405 2.60286 0.642254C3.13859 0.412102 3.71478 0.299446 4.29473 0.311456L10.5607 0.447309C11.5746 0.458997 12.5492 0.85048 13.303 1.54879C14.0568 2.2471 14.5383 3.20458 14.6577 4.24277C14.8774 6.3165 15.3238 8.35763 15.9886 10.3272C16.2529 11.1043 16.2955 11.9435 16.1115 12.7454C15.9274 13.5473 15.5244 14.2783 14.9501 14.8518L12.2382 17.5299C15.0946 22.987 19.3274 27.5459 24.49 30.7257L27.2019 28.0476C27.7823 27.4808 28.5079 27.0972 29.2928 26.9423C30.0776 26.7875 30.8887 26.8678 31.63 27.1738C33.5092 27.9442 35.4671 28.4927 37.4664 28.8089C38.4778 28.9785 39.393 29.5256 40.0379 30.3462C40.6828 31.1668 41.0125 32.2036 40.9641 33.2594Z" fill="url(#paint0_linear_587_1865)"/>
<defs>
<linearGradient id="paint0_linear_587_1865" x1="13.81" y1="34.4447" x2="41.6522" y2="32.7147" gradientUnits="userSpaceOnUse">
<stop stop-color="#00B5F1"/>
<stop offset="1" stop-color="#00E0FF"/>
</linearGradient>
</defs>
</svg>
