<svg width="18" height="18" xmlns="http://www.w3.org/2000/svg" fill="#B1B1B1"><svg width="16" height="16" viewBox="0 0 16 16" fill="none" xmlns="http://www.w3.org/2000/svg"><path id="birthday-cake 1 (Traced)" opacity="0.8" fill-rule="evenodd" clip-rule="evenodd" d="M11.7067 0.643545C11.7984 0.725394 12.1536 1.3776 12.301 1.73493C12.3976 1.96917 12.4108 2.03057 12.4118 2.25029C12.4128 2.47368 12.4038 2.51635 12.325 2.65886C12.1563 2.96397 11.8023 3.15611 11.4717 3.12195C10.9259 3.06557 10.5499 2.55544 10.68 2.04762C10.7774 1.66675 11.2913 0.669048 11.4203 0.610207C11.5305 0.559965 11.6254 0.571 11.7067 0.643545ZM8.17432 0.658219C8.2785 0.754535 8.67024 1.50162 8.79275 1.83755C8.90983 2.15867 8.9108 2.37504 8.79626 2.61739C8.64235 2.94296 8.36729 3.11482 8 3.11482C7.63398 3.11482 7.37357 2.9535 7.20969 2.62528C7.03502 2.27541 7.09698 1.98109 7.51628 1.16906C7.75546 0.705878 7.86043 0.577515 8 0.577515C8.05425 0.577515 8.11993 0.607918 8.17432 0.658219ZM4.58837 0.612027C4.71516 0.67342 5.25486 1.74397 5.33092 2.08489C5.39314 2.36374 5.27802 2.69439 5.04843 2.89613C4.86948 3.0534 4.7027 3.11473 4.45205 3.1154C4.09406 3.1164 3.82835 2.95276 3.65356 2.62364C3.60026 2.52324 3.58776 2.4524 3.58774 2.25029C3.58774 2.01771 3.59715 1.97898 3.72672 1.67802C3.90295 1.26872 4.19866 0.729502 4.29407 0.643545C4.37169 0.573612 4.48422 0.56155 4.58837 0.612027ZM12.2205 3.91798C12.2755 3.94748 12.3446 4.01662 12.374 4.07162C12.4241 4.16503 12.4276 4.27921 12.4276 5.80813V7.44469H11.5479H10.6683L10.6684 5.79393C10.6685 4.20843 10.6708 4.13944 10.7258 4.04922C10.8294 3.8791 10.8943 3.86437 11.5396 3.86437C12.0463 3.86437 12.1334 3.87123 12.2205 3.91798ZM8.66649 3.90789C8.71859 3.93054 8.78782 3.99276 8.82034 4.04611C8.87775 4.14037 8.87945 4.19056 8.87954 5.79393L8.87966 7.44469H8H7.12035L7.12046 5.79393C7.12055 4.18997 7.12225 4.1404 7.17975 4.04602C7.27821 3.88435 7.37043 3.86422 8.00639 3.86551C8.4252 3.86636 8.59632 3.87734 8.66649 3.90789ZM5.14701 3.92189C5.33693 4.03778 5.33171 3.9846 5.33171 5.7998V7.44469H4.45205H3.5724V5.80813C3.5724 4.27921 3.57592 4.16503 3.62597 4.07162C3.7266 3.8838 3.80548 3.86437 4.46625 3.86448C4.99662 3.86457 5.06219 3.87009 5.14701 3.92189ZM13.6033 8.50129C13.8467 8.54297 14.0571 8.68967 14.1662 8.89372C14.2278 9.00888 14.2309 9.04894 14.2309 9.71907C14.2309 10.4159 14.2301 10.4248 14.1576 10.5543C14.1107 10.638 14.0323 10.7172 13.94 10.7744C13.8109 10.8542 13.7722 10.8633 13.5734 10.861C13.3875 10.8588 13.2384 10.8246 12.6587 10.6508C11.8373 10.4046 11.6364 10.3685 11.0935 10.3693C10.5929 10.37 10.375 10.4096 9.57974 10.6441C8.6968 10.9045 8.59688 10.9221 8 10.9221C7.40312 10.9221 7.30319 10.9045 6.42026 10.6441C5.62502 10.4096 5.4071 10.37 4.90654 10.3693C4.3628 10.3685 4.15482 10.4059 3.33788 10.6513C2.76106 10.8246 2.61255 10.8588 2.42656 10.861C2.22773 10.8633 2.18914 10.8542 2.06004 10.7744C1.9677 10.7172 1.8893 10.638 1.84241 10.5543C1.7699 10.4248 1.76911 10.4159 1.76911 9.71907C1.76911 9.04894 1.77224 9.00888 1.83379 8.89372C1.91096 8.74931 2.04362 8.63162 2.22359 8.5479L2.35554 8.4865L7.91203 8.48237C10.9681 8.48008 13.5292 8.48859 13.6033 8.50129ZM11.4941 11.2622C11.7067 11.2882 12.0273 11.3737 12.8674 11.6283C13.1892 11.7258 13.2724 11.7396 13.5491 11.7417L13.8643 11.744V13.0866L13.8644 14.4293H14.5002C15.0761 14.4293 15.1474 14.4348 15.2572 14.4879C15.5793 14.644 15.5814 15.1097 15.2606 15.262C15.1689 15.3056 14.5457 15.3097 8 15.3097C1.45431 15.3097 0.831071 15.3056 0.739351 15.262C0.4186 15.1097 0.420682 14.644 0.742841 14.4879C0.852563 14.4348 0.923903 14.4293 1.49981 14.4293H2.13563V13.0845V11.7399L2.37753 11.7515C2.64398 11.7643 2.69093 11.7539 3.70696 11.4565C4.73199 11.1564 5.03407 11.1629 6.24755 11.5112C7.17629 11.7778 7.5193 11.831 8.16127 11.8082C8.71707 11.7884 8.95492 11.7446 9.70067 11.5247C10.0313 11.4272 10.3941 11.3285 10.507 11.3054C10.787 11.2481 11.2231 11.229 11.4941 11.2622Z" fill="#B1B1B1"></path></svg></svg>