<svg width="18" height="18" xmlns="http://www.w3.org/2000/svg" fill="#B1B1B1"><svg xmlns="http://www.w3.org/2000/svg" width="20" height="21" viewBox="0 0 20 21" fill="none"><g opacity="0.8"><path d="M17.5 16.6429V15.2713C17.5 14.5898 17.0851 13.9769 16.4523 13.7238L14.7572 13.0458C13.9524 12.7239 13.0352 13.0726 12.6475 13.8479L12.5 14.1429C12.5 14.1429 10.4167 13.7262 8.75 12.0596C7.08333 10.3929 6.66667 8.30957 6.66667 8.30957L6.96168 8.16206C7.73698 7.77441 8.08571 6.85718 7.76379 6.05237L7.08574 4.35725C6.83263 3.72449 6.21979 3.30957 5.53828 3.30957H4.16667C3.24619 3.30957 2.5 4.05576 2.5 4.97624C2.5 12.34 8.46954 18.3096 15.8333 18.3096C16.7538 18.3096 17.5 17.5634 17.5 16.6429Z" fill="#B1B1B1"></path></g></svg></svg>