<svg width="18" height="18" xmlns="http://www.w3.org/2000/svg" fill="#B1B1B1"><svg xmlns="http://www.w3.org/2000/svg" width="16" height="15" viewBox="0 0 16 15" fill="none"><path opacity="0.8" d="M0.5 3.55957C0.5 1.90272 1.84315 0.55957 3.5 0.55957H12.5C14.1569 0.55957 15.5 1.90272 15.5 3.55957V11.0596C15.5 12.7164 14.1569 14.0596 12.5 14.0596H3.5C1.84315 14.0596 0.5 12.7164 0.5 11.0596V3.55957Z" fill="#B1B1B1"></path><path fill-rule="evenodd" clip-rule="evenodd" d="M3.03008 3.99749C3.2024 3.739 3.55164 3.66916 3.81013 3.84148L6.64603 5.73208C7.46478 6.27792 8.53143 6.27792 9.35019 5.73208L12.1861 3.84148C12.4446 3.66916 12.7938 3.739 12.9661 3.99749C13.1385 4.25597 13.0686 4.60521 12.8101 4.77754L9.97423 6.66814C8.77759 7.4659 7.21863 7.4659 6.02199 6.66814L3.18609 4.77754C2.9276 4.60521 2.85776 4.25597 3.03008 3.99749Z" fill="white"></path></svg></svg>