<svg width="19" height="19" xmlns="http://www.w3.org/2000/svg" fill="#e74c3c" ariaLabel="Icon LogOut"><svg width="19" height="19" viewBox="0 0 25 24" fill="none" xmlns="http://www.w3.org/2000/svg"><g id="Huge-icon/interface/solid/logout"><g id="logout"><path id="combo shape" fill-rule="evenodd" clip-rule="evenodd" d="M7.25 3.25C4.62665 3.25 2.5 5.37665 2.5 8V16C2.5 18.6234 4.62665 20.75 7.25 20.75H14.5C17.1234 20.75 19.25 18.6234 19.25 16C19.25 15.5858 18.9142 15.25 18.5 15.25C18.0858 15.25 17.75 15.5858 17.75 16C17.75 17.7949 16.2949 19.25 14.5 19.25H9.96412C10.7616 18.4003 11.25 17.2572 11.25 16V8C11.25 6.74279 10.7616 5.59965 9.96412 4.75H14.5C16.2949 4.75 17.75 6.20507 17.75 8C17.75 8.41421 18.0858 8.75 18.5 8.75C18.9142 8.75 19.25 8.41421 19.25 8C19.25 5.37665 17.1234 3.25 14.5 3.25H7.25ZM19.6464 14.5303C19.3536 14.2374 19.3536 13.7626 19.6464 13.4697L20.3661 12.75H14.25C13.8358 12.75 13.5 12.4142 13.5 12C13.5 11.5858 13.8358 11.25 14.25 11.25H20.3661L19.6464 10.5303C19.3536 10.2374 19.3536 9.76256 19.6464 9.46967C19.9393 9.17678 20.4142 9.17678 20.7071 9.46967L22 10.7626C22.6834 11.446 22.6834 12.554 22 13.2374L20.7071 14.5303C20.4142 14.8232 19.9393 14.8232 19.6464 14.5303Z" fill="#e74c3c"></path></g></g></svg></svg>