<svg width="18" height="18" xmlns="http://www.w3.org/2000/svg" fill="#B1B1B1"><svg xmlns="http://www.w3.org/2000/svg" width="19" height="18" viewBox="0 0 20 14" fill="none"><path fill-rule="evenodd" clip-rule="evenodd" d="M10 6C11.6569 6 13 4.65685 13 3C13 1.34315 11.6569 0 10 0C8.34315 0 7 1.34315 7 3C7 4.65685 8.34315 6 10 6ZM10 14C13.3137 14 16 12.6569 16 11C16 9.34315 13.3137 8 10 8C6.68629 8 4 9.34315 4 11C4 12.6569 6.68629 14 10 14ZM4.38165 8.01904C1.91199 8.17134 0 9.22409 0 10.5001C0 11.5521 1.29949 12.4523 3.13963 12.8213C2.72843 12.2645 2.5 11.6483 2.5 11.0001C2.5 9.85669 3.21076 8.81288 4.38165 8.01904ZM17.5001 11.0001C17.5001 11.6483 17.2716 12.2645 16.8604 12.8213C18.7006 12.4523 20.0001 11.5521 20.0001 10.5001C20.0001 9.22409 18.0881 8.17134 15.6184 8.01904C16.7893 8.81288 17.5001 9.85669 17.5001 11.0001ZM13.7183 5.53539C14.2115 4.8134 14.5 3.94039 14.5 3C14.5 2.68794 14.4682 2.3833 14.4077 2.08914C14.5949 2.0312 14.7938 2 15 2C16.1045 2 17 2.89543 17 4C17 5.10457 16.1045 6 15 6C14.5123 6 14.0653 5.82544 13.7183 5.53539ZM5 2C5.20619 2 5.40509 2.0312 5.59223 2.08914C5.53176 2.3833 5.5 2.68794 5.5 3C5.5 3.94039 5.78845 4.8134 6.28171 5.53539C5.93462 5.82544 5.4877 6 5 6C3.89543 6 3 5.10457 3 4C3 2.89543 3.89543 2 5 2Z" fill="#B1B1B1"></path></svg></svg>