<svg width="18" height="18" xmlns="http://www.w3.org/2000/svg" fill="#B1B1B1"><svg xmlns="http://www.w3.org/2000/svg" width="18" height="16" viewBox="0 0 18 20" fill="none"><path fill-rule="evenodd" clip-rule="evenodd" d="M15.5 9.5V4H17V9.5C17 9.91421 16.6642 10.25 16.25 10.25C15.8358 10.25 15.5 9.91421 15.5 9.5Z" fill="#B1B1B1"></path><path d="M13 8V5H5V8C5 10.2091 6.79086 12 9 12C11.2091 12 13 10.2091 13 8Z" fill="#B1B1B1"></path><path d="M1.02813 3.5431L7.78168 0.541524C8.55737 0.196771 9.44281 0.196771 10.2185 0.541524L16.9721 3.5431C17.368 3.71906 17.368 4.28095 16.9721 4.45691L10.2185 7.45849C9.44281 7.80324 8.55737 7.80324 7.78168 7.45849L1.02813 4.45691C0.632224 4.28095 0.632224 3.71906 1.02813 3.5431Z" fill="#B1B1B1"></path><path d="M11.2996 13.3996L9.71103 15.0059C9.31962 15.4017 8.68038 15.4017 8.28897 15.0059L6.70045 13.3996C6.45505 13.1515 6.09681 13.0457 5.762 13.1442C2.95686 13.9691 1 15.8329 1 18.0001C1 19.1046 1.89543 20.0001 3 20.0001H15C16.1046 20.0001 17 19.1046 17 18.0001C17 15.8329 15.0431 13.9691 12.238 13.1442C11.9032 13.0457 11.5449 13.1515 11.2996 13.3996Z" fill="#B1B1B1"></path></svg></svg>